<?xml version="1.0" standalone="no"?>
<svg version="1.1" preserveAspectRatio="none" viewBox="0 0 24 24" class="ng-element" data-id="a9a12cc528bc8c3969b468f4434c8b8d" style="fill: rgb(255, 255, 255); width: 40px; height: 40px;" xmlns="http://www.w3.org/2000/svg"><g><path xmlns:default="http://www.w3.org/2000/svg" id="youtube" d="M14.11,15.61c0-0.47-0.14-0.7-0.41-0.7c-0.18,0.01-0.35,0.09-0.47,0.23v3.13c0.12,0.14,0.29,0.22,0.47,0.23  c0.27,0,0.41-0.23,0.41-0.7v-2.2l0,0V15.61z M17.63,15.61c0-0.47-0.16-0.71-0.47-0.71s-0.47,0.24-0.47,0.71v0.48h0.94v-0.47l0,0  L17.63,15.61z M7.58,13.35v5.92h-1v-5.92H5.44v-1h3.25v1H7.58z M10.58,19.27v-0.55c-0.25,0.35-0.63,0.59-1.06,0.64  C9.25,19.4,9,19.25,8.91,18.99c-0.06-0.25-0.09-0.5-0.08-0.76v-4.1h0.92v3.79c-0.01,0.12-0.01,0.24,0,0.36  c-0.01,0.12,0.08,0.21,0.2,0.22c0.01,0,0.01,0,0.02,0c0.25-0.05,0.47-0.21,0.59-0.44v-3.93h0.94v5.14h-0.93L10.58,19.27z M15,17.74  c0.01,0.34-0.02,0.67-0.09,1c-0.07,0.35-0.39,0.59-0.74,0.57c-0.4-0.02-0.77-0.23-1-0.57v0.5h-0.86v-6.9h0.93v2.26  c0.22-0.34,0.6-0.55,1-0.56c0.36-0.02,0.67,0.23,0.74,0.58c0.08,0.33,0.11,0.66,0.09,1v2.05l0,0L15,17.74z M18.52,17.64  c0.01,0.2,0.01,0.4,0,0.6c-0.09,0.66-0.67,1.14-1.34,1.11c-0.44,0.02-0.86-0.18-1.12-0.53c-0.23-0.36-0.33-0.79-0.3-1.21v-1.8  c-0.03-0.42,0.07-0.85,0.29-1.21c0.49-0.61,1.38-0.71,2-0.22c0.08,0.07,0.16,0.14,0.22,0.22c0.21,0.37,0.31,0.79,0.28,1.21v1.07  H16.7v0.91c0,0.48,0.16,0.72,0.48,0.72c0.22,0.01,0.4-0.15,0.42-0.37c0.01-0.21,0.01-0.43,0-0.64h0.95v0.14l0,0L18.52,17.64z   M12.23,8.13c0,0.49-0.15,0.73-0.45,0.73c-0.3,0-0.45-0.24-0.45-0.73V5.99c0-0.48,0.15-0.72,0.45-0.72c0.3,0,0.45,0.24,0.45,0.72  V8.13L12.23,8.13z M19.71,15.99c0.04-1.22-0.05-2.44-0.27-3.64c-0.19-0.8-0.85-1.41-1.67-1.52c-1.28-0.14-3.21-0.21-5.78-0.21  s-4.5,0.07-5.77,0.21c-0.4,0.05-0.77,0.22-1.07,0.49c-0.29,0.27-0.5,0.61-0.6,1c-0.21,1.21-0.3,2.44-0.26,3.67  c-0.04,1.22,0.05,2.44,0.27,3.64c0.09,0.39,0.3,0.74,0.6,1c0.3,0.27,0.67,0.44,1.07,0.48c1.92,0.17,3.85,0.25,5.78,0.22  c1.93,0.03,3.86-0.05,5.78-0.22c0.4-0.04,0.77-0.21,1.06-0.48c0.29-0.27,0.5-0.61,0.6-1C19.66,18.43,19.75,17.21,19.71,15.99  L19.71,15.99z M8.62,5.4L7.88,2.66H6.77c0.19,0.58,0.42,1.23,0.68,1.95c0.26,0.72,0.48,1.46,0.64,2.21v2.82h1V6.82l1.26-4.15H9.32  L8.62,5.4z M13.18,6.13c0.04-0.43-0.07-0.85-0.29-1.22c-0.48-0.61-1.36-0.71-1.97-0.23c-0.09,0.07-0.17,0.15-0.23,0.23  c-0.22,0.37-0.33,0.79-0.29,1.22v1.86c-0.03,0.43,0.07,0.86,0.29,1.23c0.48,0.61,1.36,0.71,1.97,0.23c0.09-0.07,0.17-0.15,0.23-0.23  c0.22-0.37,0.33-0.8,0.29-1.23V6.13L13.18,6.13z M15.72,4.44v4c-0.11,0.23-0.33,0.4-0.59,0.45c-0.12,0-0.22-0.1-0.22-0.22  c0,0,0-0.01,0-0.01c-0.01-0.12-0.01-0.24,0-0.36V4.44h-0.96v4.1c-0.01,0.26,0.02,0.53,0.08,0.78c0.09,0.26,0.34,0.42,0.61,0.39  c0.43-0.05,0.83-0.29,1.07-0.65v0.58h0.95v-5.2H15.72z" style="fill: rgb(255, 255, 255);"/></g></svg>