<?xml version="1.0" standalone="no"?>
<svg version="1.1" preserveAspectRatio="none" viewBox="0 0 24 24" class="ng-element" data-id="b40ea0447345d010c9f8558e9d58c60e" style="fill: rgb(255, 255, 255); width: 40px; height: 40px;" xmlns="http://www.w3.org/2000/svg"><g><path xmlns:default="http://www.w3.org/2000/svg" id="google-plus" d="M15,12.2c0-0.43-0.04-0.85-0.12-1.27H7.64v2.62H12c-0.05,0.26-0.12,0.52-0.22,0.77  c-0.13,0.31-0.3,0.6-0.51,0.86c-0.24,0.31-0.51,0.58-0.82,0.82c-0.36,0.27-0.76,0.47-1.19,0.6c-0.51,0.17-1.05,0.25-1.59,0.24  c-0.83,0-1.65-0.22-2.37-0.65c-1.48-0.87-2.39-2.45-2.39-4.17c-0.01-1.71,0.89-3.3,2.36-4.17C5.99,7.42,6.81,7.2,7.64,7.2  c1.12-0.02,2.2,0.4,3,1.18l2.07-2c-1.37-1.31-3.21-2.03-5.11-2c-1.03-0.01-2.05,0.2-3,0.6C2.79,5.75,1.36,7.2,0.61,9.02  c-0.82,1.92-0.82,4.08,0,6c0.77,1.82,2.23,3.26,4.06,4c0.95,0.4,1.97,0.61,3,0.6c1.35,0.01,2.67-0.33,3.84-1  c1.08-0.61,1.96-1.51,2.55-2.6C14.69,14.85,15.01,13.53,15,12.2L15,12.2z M21.85,10.93V8.75h-2.22v2.18h-2.17v2.19h2.18v2.18h2.19  v-2.19H24v-2.18h-2.18H21.85z" style="fill: rgb(255, 255, 255);"/></g></svg>