<?xml version="1.0" standalone="no"?>
<svg version="1.1" preserveAspectRatio="none" viewBox="0 0 46 46" class="ng-element" data-id="ff47e69584d6e3141bb0e0b8aaf18be1" style="fill: rgb(128, 203, 196); width: 55px; height: 55px;" xmlns="http://www.w3.org/2000/svg"><g><g xmlns:default="http://www.w3.org/2000/svg">
	<g>
		<path d="M23,0C10.3,0,0,10.3,0,23c0,4.3,1.2,8.5,3.5,12.2L0.6,46l11-3c3.5,2,7.4,3,11.4,3c12.7,0,23-10.3,23-23    C46,10.3,35.7,0,23,0z M23,44c-3.8,0-7.5-1-10.7-2.9l-0.4-0.2l-8.5,2.3l2.2-8.3l-0.2-0.4C3.2,31.1,2,27.1,2,23C2,11.4,11.4,2,23,2    c11.6,0,21,9.4,21,21C44,34.6,34.6,44,23,44z M21.7,11.9c-3.1,0-6,1.7-7.5,4.5l1.8,0.9c1.1-2.1,3.3-3.4,5.7-3.4    c6.4,0,6.4,3.4,6.4,4.5c0,2-2.5,4-4.9,5.4c-0.3,0-0.7,0-1.1,0.2c-0.8,0.5-1.9,1.8-1.9,7.7h2c0-5.3,0.9-6,0.9-6c0,0-0.1,0.1-0.4,0    l0.4-0.8l0.5,0.9c1.9-1,6.5-3.8,6.5-7.5C30.1,15.9,29,11.9,21.7,11.9z M20.2,35.7h2v-2h-2V35.7z" style="fill: rgb(128, 203, 196);"/>
	</g>
</g></g></svg>