<?xml version="1.0" standalone="no"?>
<svg version="1.1" preserveAspectRatio="none" viewBox="0 0 24 24" class="ng-element" data-id="95f754c8d98003e80437415e7375930a" style="fill: rgb(255, 255, 255); width: 40px; height: 40px;" xmlns="http://www.w3.org/2000/svg"><g><path xmlns:default="http://www.w3.org/2000/svg" id="linkedin-square" d="M6.47,17.39v-7.22h2.41v7.23H6.47V17.39z M8.66,8.83c-0.27,0.25-0.63,0.38-1,0.36l0,0  c-0.37,0.03-0.73-0.11-1-0.36C6.42,8.6,6.28,8.28,6.29,7.94C6.28,7.58,6.43,7.23,6.71,7c0.27-0.24,0.63-0.37,1-0.35  c0.37-0.03,0.73,0.1,1,0.35c0.24,0.24,0.38,0.56,0.37,0.9C9.09,8.26,8.93,8.6,8.66,8.83z M15.13,17.39v-3.86  c0-1.09-0.4-1.63-1.21-1.63c-0.28-0.01-0.55,0.08-0.77,0.26c-0.2,0.17-0.37,0.38-0.47,0.62c-0.06,0.19-0.08,0.38-0.07,0.58v4H10.2  c0-4.36,0-6.77,0-7.23h2.4v1.05l0,0c0.45-0.76,1.28-1.21,2.16-1.18c0.75-0.03,1.48,0.27,2,0.82c0.55,0.68,0.82,1.55,0.76,2.43v4.14  H15.13L15.13,17.39z M19.13,4.88C18.57,4.3,17.8,3.99,17,4H7C5.34,4,4,5.34,4,7v10c0,1.66,1.34,3,3,3h10c1.66,0,3-1.34,3-3V7  C20.01,6.2,19.69,5.44,19.13,4.88L19.13,4.88z" style="fill: rgb(255, 255, 255);"/></g></svg>