<?xml version="1.0" standalone="no"?>
<svg version="1.1" preserveAspectRatio="none" viewBox="0 0 24 24" class="ng-element" data-id="426128f4e576acec59635f44391ce006" style="fill: rgb(255, 255, 255); width: 40px; height: 40px;" xmlns="http://www.w3.org/2000/svg"><g><path xmlns:default="http://www.w3.org/2000/svg" id="github" d="M12,4.19c-1.41-0.01-2.79,0.36-4,1.07c-1.21,0.7-2.22,1.7-2.92,2.91C4.36,9.39,3.99,10.78,4,12.19  c-0.02,1.69,0.52,3.34,1.53,4.7c0.97,1.36,2.35,2.37,3.94,2.89c0.14,0.05,0.3,0.02,0.42-0.07c0.08-0.09,0.12-0.2,0.11-0.32  c0,0,0-0.22,0-0.57s0-0.66,0-0.92l-0.23,0.09c-0.19,0.02-0.39,0.02-0.58,0c-0.24,0-0.48-0.03-0.72-0.07  c-0.25-0.05-0.49-0.15-0.7-0.31c-0.21-0.16-0.37-0.37-0.46-0.62l-0.1-0.24c-0.09-0.19-0.2-0.37-0.33-0.53  c-0.12-0.17-0.27-0.3-0.45-0.4l-0.07-0.05c-0.05-0.03-0.1-0.07-0.14-0.12c-0.04-0.05-0.07-0.1-0.09-0.15c-0.02-0.05,0-0.1,0.05-0.12  c0,0,0,0,0,0c0.1-0.02,0.2-0.02,0.3,0h0.21c0.19,0.05,0.36,0.13,0.52,0.25c0.2,0.14,0.38,0.33,0.5,0.54  c0.14,0.26,0.34,0.48,0.58,0.65C8.5,16.95,8.75,17.01,9,16.99c0.19,0.02,0.37,0.02,0.56,0c0.15-0.05,0.3-0.12,0.44-0.2  c0.04-0.4,0.22-0.78,0.51-1.07c-0.36-0.04-0.72-0.1-1.07-0.19c-0.35-0.09-0.69-0.23-1-0.41c-0.32-0.18-0.61-0.41-0.84-0.7  c-0.25-0.33-0.43-0.7-0.55-1.09c-0.15-0.51-0.22-1.03-0.21-1.56c-0.01-0.79,0.28-1.56,0.82-2.14C7.42,8.93,7.47,8.17,7.8,7.5  c0.3-0.05,0.61,0,0.88,0.14c0.3,0.11,0.59,0.24,0.87,0.4L10,8.32c1.31-0.36,2.69-0.36,4,0l0.4-0.25c0.32-0.19,0.65-0.34,1-0.46  c0.26-0.13,0.56-0.16,0.84-0.11c0.31,0.67,0.34,1.43,0.08,2.12c0.54,0.58,0.83,1.35,0.82,2.14c0.01,0.53-0.06,1.06-0.21,1.57  c-0.11,0.4-0.3,0.77-0.55,1.09c-0.23,0.28-0.52,0.51-0.84,0.69c-0.31,0.18-0.65,0.32-1,0.41c-0.35,0.09-0.71,0.15-1.07,0.19  c0.39,0.39,0.58,0.93,0.53,1.48c0,0.43,0,0.89,0,1.4c0,0.51,0,0.77,0,0.8c0,0.12,0.05,0.23,0.14,0.31c0.12,0.09,0.28,0.12,0.42,0.07  c1.59-0.52,2.97-1.53,3.94-2.89c1-1.36,1.52-3.01,1.5-4.69c0.01-1.41-0.36-2.79-1.07-4c-0.7-1.22-1.71-2.23-2.93-2.93  C14.79,4.55,13.41,4.19,12,4.19L12,4.19z M6.9,15.69c-0.07-0.03-0.09-0.07-0.07-0.12c0.04-0.03,0.1-0.03,0.14,0  c0.07,0.03,0.09,0.07,0.07,0.12C7.02,15.74,6.97,15.74,6.9,15.69z M7.19,15.99c-0.06-0.07-0.06-0.13,0-0.17c0.09-0.06,0.1,0,0.17,0  s0.05,0.17,0,0.17S7.26,16.07,7.19,15.99z M7.49,16.42c-0.06-0.09-0.06-0.16,0-0.19c0.06-0.03,0.12-0.01,0.18,0.06  c0.06,0.05,0.06,0.13,0.02,0.18c-0.01,0.01-0.01,0.01-0.02,0.02C7.62,16.54,7.56,16.52,7.49,16.42z M7.9,16.9  c-0.09-0.07-0.09-0.14,0-0.2s0.16-0.06,0.21,0c0.05,0.06,0.05,0.13,0,0.2C8.06,16.98,7.99,16.98,7.9,16.9z M8.7,17.19  c0,0.08-0.07,0.1-0.2,0.06s-0.18-0.09-0.14-0.16c0.01-0.08,0.09-0.13,0.16-0.11c0.01,0,0.03,0.01,0.04,0.01  c0.11,0.03,0.16,0.09,0.14,0.17l0,0L8.7,17.19z M9.19,17.36C9.06,17.38,9,17.34,9,17.25s0.06-0.12,0.17-0.11  c0.12,0,0.18,0.04,0.18,0.11S9.3,17.36,9.19,17.36z M10,17.14c0,0.07-0.05,0.12-0.15,0.15s-0.16,0.01-0.19-0.08s0.02-0.14,0.15-0.16  C9.92,17.05,9.99,17.08,10,17.14L10,17.14z" style="fill: rgb(255, 255, 255);"/></g></svg>