<?xml version="1.0" standalone="no"?>
<svg version="1.1" preserveAspectRatio="none" viewBox="0 0 24 24" class="ng-element" data-id="57e830f1632535f454b057b8b879d4d3" style="fill: rgb(255, 255, 255); width: 40px; height: 40px;" xmlns="http://www.w3.org/2000/svg"><g><path xmlns:default="http://www.w3.org/2000/svg" id="facebook-square" d="M17,4H7C5.34,4,4,5.34,4,7v10c0,1.66,1.34,3,3,3h5.54v-6.2h-2.08v-2.41h2.08V9.61  c-0.05-0.87,0.25-1.72,0.85-2.35c0.61-0.57,1.43-0.87,2.26-0.83c0.62-0.01,1.24,0.02,1.85,0.09v2.15h-1.26  c-0.36-0.06-0.73,0.05-1,0.29C15.06,9.21,14.98,9.52,15,9.83v1.54h2.38l-0.27,2.43H15V20h2c1.66,0,3-1.34,3-3V7  C20,5.34,18.66,4,17,4L17,4z" style="fill: rgb(255, 255, 255);"/></g></svg>