<?xml version="1.0" standalone="no"?>
<svg version="1.1" preserveAspectRatio="none" viewBox="0 0 24 24" class="ng-element" data-id="895e60bd2dd7b5be887210994ec08088" style="fill: rgb(255, 255, 255); width: 32px; height: 32px;" xmlns="http://www.w3.org/2000/svg"><g><path xmlns:default="http://www.w3.org/2000/svg" id="cogs" d="M10.55,13.87c-1.04,1.04-2.72,1.04-3.76,0.01c0,0-0.01-0.01-0.01-0.01c-1.04-1.04-1.04-2.72-0.01-3.76  c0,0,0.01-0.01,0.01-0.01c1.04-1.04,2.72-1.04,3.76-0.01c0,0,0.01,0.01,0.01,0.01C11.59,11.14,11.59,12.82,10.55,13.87  C10.56,13.86,10.55,13.87,10.55,13.87z M18.94,18.26c-0.52,0.51-1.35,0.51-1.87-0.01c-0.51-0.52-0.51-1.35,0.01-1.87  c0.52-0.51,1.35-0.51,1.87,0.01c0.24,0.25,0.38,0.58,0.38,0.93C19.34,17.67,19.19,18.01,18.94,18.26z M18.94,7.6  c-0.5,0.54-1.34,0.56-1.88,0.06S16.5,6.31,17,5.78c0.02-0.02,0.04-0.04,0.06-0.06c0.52-0.52,1.36-0.52,1.88,0  c0.25,0.25,0.39,0.59,0.39,0.94C19.34,7.01,19.19,7.35,18.94,7.6z M15.33,10.99c0-0.07-0.02-0.14-0.07-0.2  c-0.04-0.06-0.11-0.1-0.18-0.11l-1.58-0.19c-0.1-0.29-0.22-0.57-0.35-0.85c0.11-0.15,0.26-0.36,0.47-0.62l0.44-0.56  c0.04-0.06,0.07-0.13,0.07-0.2c-0.38-0.65-0.89-1.22-1.5-1.67c-0.06-0.05-0.14-0.08-0.22-0.08c-0.08,0-0.15,0.02-0.21,0.07L11,7.5  c-0.25-0.13-0.51-0.24-0.78-0.32l-0.27-1.6C9.94,5.51,9.91,5.44,9.85,5.4C9.79,5.35,9.72,5.32,9.64,5.32H7.7  c-0.15-0.01-0.28,0.1-0.31,0.25c-0.12,0.53-0.2,1.06-0.24,1.6c-0.28,0.09-0.54,0.2-0.8,0.33l-1.2-0.94  C5.09,6.51,5.01,6.49,4.93,6.49C4.61,6.62,4.33,6.83,4.11,7.1C3.8,7.38,3.52,7.67,3.25,7.99C3.2,8.05,3.18,8.12,3.18,8.2  c0,0.08,0.03,0.15,0.07,0.21c0.39,0.47,0.7,0.87,0.94,1.2c-0.13,0.25-0.24,0.52-0.33,0.79l-1.61,0.25  c-0.07,0.01-0.13,0.05-0.17,0.11C2.03,10.82,2,10.91,2,10.99v1.93c0,0.07,0.02,0.14,0.07,0.2c0.04,0.06,0.11,0.09,0.18,0.1  l1.58,0.25c0.1,0.29,0.22,0.58,0.36,0.85l-0.48,0.67l-0.43,0.55c-0.04,0.06-0.07,0.13-0.07,0.2c0.38,0.65,0.89,1.22,1.5,1.67  c0.06,0.05,0.14,0.08,0.22,0.08c0.08,0.01,0.15-0.02,0.21-0.07l1.23-0.93c0.25,0.13,0.51,0.24,0.78,0.32l0.24,1.58  c0.01,0.07,0.04,0.14,0.1,0.18c0.06,0.05,0.13,0.08,0.21,0.08h1.94c0.15,0.01,0.28-0.1,0.31-0.25c0.12-0.53,0.2-1.07,0.24-1.61  c0.28-0.08,0.54-0.19,0.8-0.32l1.2,0.94c0.06,0.05,0.14,0.07,0.22,0.07c0.32-0.13,0.61-0.35,0.82-0.62c0.3-0.29,0.59-0.6,0.86-0.93  c0.05-0.05,0.07-0.13,0.07-0.2c0-0.08-0.03-0.15-0.07-0.21c-0.39-0.47-0.7-0.87-0.94-1.2c0.13-0.25,0.24-0.52,0.33-0.79l1.61-0.25  c0.07-0.01,0.13-0.05,0.17-0.11c0.04-0.06,0.07-0.13,0.07-0.2V10.99L15.33,10.99z M22,16.59c-0.48-0.24-1.01-0.35-1.55-0.32  c-0.08-0.19-0.19-0.37-0.31-0.54c0.24-0.45,0.42-0.94,0.53-1.44c0.01-0.02,0.01-0.05,0-0.07c-0.83-0.49-1.26-0.73-1.29-0.73h-0.06  c-0.36,0.36-0.7,0.75-1,1.17h-0.31H17.7c-0.1-0.15-0.28-0.38-0.54-0.7c-0.12-0.19-0.29-0.36-0.48-0.48l-0.31,0.17l-0.63,0.34  l-0.36,0.21c-0.01,0.02-0.01,0.05,0,0.07c0.11,0.5,0.29,0.99,0.53,1.44c-0.12,0.17-0.23,0.35-0.31,0.54  c-0.55-0.04-1.11,0.08-1.6,0.34v1.46c0.48,0.24,1.01,0.35,1.55,0.32c0.08,0.19,0.19,0.37,0.31,0.54c-0.24,0.45-0.42,0.94-0.53,1.44  c-0.01,0.02-0.01,0.05,0,0.07l1.29,0.74c0.19-0.13,0.36-0.29,0.48-0.49c0.27-0.33,0.45-0.56,0.54-0.71L18,19.99h0.31  c0.1,0.15,0.28,0.38,0.54,0.71c0.12,0.2,0.29,0.36,0.48,0.49l1.29-0.74c0.01-0.02,0.01-0.05,0-0.07c-0.11-0.5-0.29-0.99-0.53-1.44  c0.12-0.17,0.23-0.35,0.31-0.54c0.56,0.03,1.11-0.09,1.6-0.36V16.59L22,16.59z M22,5.93c-0.48-0.24-1.01-0.35-1.55-0.32  c-0.08-0.19-0.19-0.37-0.31-0.54c0.24-0.45,0.42-0.94,0.53-1.44c0.01-0.02,0.01-0.05,0-0.07c-0.83-0.49-1.26-0.73-1.29-0.73h-0.06  c-0.36,0.36-0.7,0.75-1,1.17L18,3.99h-0.32c-0.1-0.15-0.28-0.38-0.54-0.7c-0.12-0.19-0.29-0.36-0.48-0.48l-0.31,0.18l-0.61,0.35  l-0.36,0.21c-0.01,0.02-0.01,0.05,0,0.07c0.11,0.5,0.29,0.99,0.53,1.44c-0.12,0.17-0.23,0.35-0.31,0.54  c-0.55-0.04-1.11,0.07-1.6,0.33v1.45c0.48,0.24,1.01,0.35,1.55,0.32c0.08,0.19,0.19,0.37,0.31,0.54c-0.24,0.45-0.42,0.94-0.53,1.44  c-0.01,0.02-0.01,0.05,0,0.07l1.29,0.74c0.21-0.13,0.39-0.3,0.52-0.5c0.27-0.33,0.45-0.56,0.54-0.71h0.31h0.31  c0.1,0.15,0.28,0.38,0.54,0.71c0.12,0.2,0.29,0.36,0.48,0.49l1.29-0.74c0.01-0.02,0.01-0.05,0-0.07c-0.11-0.5-0.29-0.99-0.53-1.44  c0.12-0.17,0.23-0.35,0.31-0.54C20.95,7.74,21.5,7.63,22,7.38V5.93L22,5.93z" style="fill: rgb(255, 255, 255);"/></g></svg>